<?xml version="1.0" encoding="UTF-8"?>
<svg id="Layer_1" xmlns="http://www.w3.org/2000/svg" version="1.1" viewBox="0 0 511.81 325">
  <!-- Generator: Adobe Illustrator 30.1.0, SVG Export Plug-In . SVG Version: 2.1.1 Build 136)  -->
  <defs>
    <style>
      .st0 {
        fill: #ffafc8;
      }

      .st1 {
        fill: #ff8c00;
      }

      .st2 {
        fill: #004dff;
      }

      .st3 {
        fill: #750787;
      }

      .st4 {
        fill: #008026;
      }

      .st5 {
        fill: #fff;
      }

      .st6 {
        fill: #ffed00;
      }

      .st7 {
        fill: #e40303;
      }

      .st8 {
        fill: #613915;
      }

      .st9 {
        fill: #74d7ee;
      }
    </style>
  </defs>
  <path class="st3" d="M0,0h511.81v325H0V0Z"/>
  <path class="st2" d="M0,0h511.81v270.83H0V0Z"/>
  <path class="st4" d="M0,0h511.81v216.67H0V0Z"/>
  <path class="st6" d="M0,0h511.81v162.5H0V0Z"/>
  <path class="st1" d="M0,0h511.81v108.33H0V0Z"/>
  <path class="st7" d="M0,0h511.81v54.17H0V0Z"/>
  <path d="M0-81.93l244.3,244.43L0,406.93V-81.93Z"/>
  <path class="st8" d="M0-40.94l203.36,203.44L0,365.94V-40.94Z"/>
  <path class="st9" d="M0,325V0l163.1,162.5L0,325Z"/>
  <path class="st0" d="M0,284.06V40.94l121.13,121.56L0,284.06Z"/>
  <path class="st5" d="M0,81.89l81.12,80.61L0,243.11V81.89Z"/>
</svg>